# xmcd
#
# Track frame offsets:
#	150
#	12866
#	30298
#	44676
#	61256
#	76591
#	92649
#	104244
#	117698
#	131131
#	152451
#	167849
#	183073
#	208488
#	229007
#	247336
#
# Disc length: 3503 seconds
#
# Revision: 1
# Processed by: cddbd v1.5.2PL0 Copyright (c) Steve Scherf et al.
# Submitted via: audiograbber 1.83.01
#
DISCID=d90dad10
DTITLE=Nite Sky - Nite Sky 801
DYEAR=2008
DGENRE=Country
TTITLE0=Heart Full Of Good Intentions  - Gary and Carol Bibb
TTITLE1=Goodbye Memory  - Andrew Dean
TTITLE2=Love You All Night Long  - Ed Byerly
TTITLE3=Climbing The Walls  - Dave Wooley
TTITLE4=In A Mother´s Eyes  - Andrew Dean
TTITLE5=Scottish Rag  - Ron Thompson
TTITLE6=Down, Down, Down  - Kimberly Bibb Marrs
TTITLE7=When I Called On His Name  - Ray Owen
TTITLE8=Safe Harbor  - Tony Malone
TTITLE9=Don´t Cast Your Pearls  - Rhonda Lee
TTITLE10=A Better Man - Tim Lovell
TTITLE11=You Were There - Gary and Carol Bibb
TTITLE12=Just Hold On  - Rhonda Lee
TTITLE13=Alive And Well - Kris Miller
TTITLE14=At The Bottom - Altovise T Perry
TTITLE15=Shine A Little Light On Me  - Risen Gospel Band
EXTD=
EXTT0=
EXTT1=
EXTT2=
EXTT3=
EXTT4=
EXTT5=
EXTT6=
EXTT7=
EXTT8=
EXTT9=
EXTT10=
EXTT11=
EXTT12=
EXTT13=
EXTT14=
EXTT15=
PLAYORDER=
